<?xml version="1.0" encoding="UTF-8" standalone="no"?>
<!DOCTYPE svg PUBLIC "-//W3C//DTD SVG 1.1//EN" "http://www.w3.org/Graphics/SVG/1.1/DTD/svg11.dtd">
<svg width="100%" height="100%" viewBox="0 0 3567 2516" version="1.1" xmlns="http://www.w3.org/2000/svg" xmlns:xlink="http://www.w3.org/1999/xlink" xml:space="preserve" xmlns:serif="http://www.serif.com/" style="fill-rule:evenodd;clip-rule:evenodd;stroke-linejoin:round;stroke-miterlimit:2;">
    <g transform="matrix(4.16667,0,0,4.16667,-8.72095,-8.30375)">
        <g transform="matrix(0.1,0,0,-0.1,0,612)">
            <path d="M401.411,6088.64C309.411,6072.64 258,6064 205,6039C-67,5911 -38,5684 295,5341C496,5133 775,4936 1080,4785C1217,4717 1438,4620 1455,4620C1459,4620 1839,4495 2094,4440C2181,4421 2454,4381 2607,4365C2877,4336 3304,4345 3593,4386C3637,4392 3640,4391 3640,4371C3640,4356 3630,4345 3607,4335C3551,4312 3300,4270 3025,4238C2912,4225 2305,4221 1455,4229C1085.79,4217.67 1100.42,4212.34 910.977,4201.36C722.521,4190.44 457.698,4095.08 336.869,4048.35C275.487,4024.62 216,3963 186,3921C122,3832 117,3769 168,3675C228,3564 398,3468 735,3354C1027,3254 1408,3186 1840,3155C1918,3150 2341,3149 2397,3155C2930,3206 3277,3329 3513,3550C3634,3663 3775,3855 3924,4112C4007,4255 4013,4262 4045,4229C4076,4197 4140,4074 4140,4047C4140,4035 4129,3989 4115,3945C4095,3879 4090,3844 4090,3745C4090,3618 4104,3550 4150,3442C4172,3390 4173,3382 4167,3197C4140,2387 3916,1617 3492,875C3335,600 3278.53,491.792 3016.53,149.792C2968.53,86.792 3011.99,55.92 3037.2,64.361C3053.79,69.919 3083.09,94.14 3115.46,132.014C3132.25,151.648 3149.17,175.65 3167.73,200.434C3482.64,620.943 4095.25,1613.99 4284.25,2489.99C4342.25,2759.99 4377.71,2915.07 4414.11,3200C4438.45,3390.55 4433,3396 4465,3470C4513,3580 4524,3634 4524,3745C4524,3821 4517,3870 4497,3949C4482,4006 4472,4062 4476,4074C4479,4085 4500,4128 4523,4168C4573,4256 4594,4262 4630,4198C4777,3932 4966,3671 5101,3546C5278,3382 5525,3272 5881,3200C6076,3161 6202,3150 6471,3150C6794,3150 6967,3165 7306,3220C7756,3295 8134,3424 8338,3572C8401,3619 8457,3699 8466,3758C8485,3879 8386,4004 8200,4091C8101,4138 7998,4168 7823,4199C7571,4244 7370,4248 6565,4220C6264,4209 5992,4213 5760,4231C5480,4253 5190,4293 5067,4327C5017,4341 5010,4346 5010,4367C5010,4390 5013,4391 5048,4386C5587,4307 6184,4346 6790,4502C7193,4605 7681,4837 8015,5084C8248,5257 8433,5444 8521,5595C8570,5679 8580,5712 8580,5797C8580,5919 8532,5983 8394,6047C8245,6115 8001,6118 7748,6054C7514,5995 7361,5934 7015,5762C6770,5640 6617,5579 6334,5490C5785,5319 5446,5196 5215,5085C5068,5014 4883,4906 4794,4839C4757,4812 4720,4790 4711,4792C4699,4795 4694,4812 4689,4866C4677,4998 4627,5126 4559,5202C4504,5263 4509,5281 4585,5294C4788,5329 4899,5545 4807,5727C4762,5815 4660,5880 4565,5880C4547,5880 4502,5894 4466,5911C4427,5929 4376,5944 4342,5947C4272,5953 4180,5936 4147,5910C4132,5898 4093,5886 4051,5880C3874,5855 3776,5751 3775,5590C3775,5435 3868,5324 4017,5300C4070,5291 4100,5277 4100,5259C4100,5254 4080,5228 4055,5200C4030,5172 4001,5132 3990,5110C3964,5059 3930,4935 3922,4858C3913,4776 3898,4774 3814,4840C3561,5039 3188,5203 2475,5430C1954,5596 1902,5615 1590,5765C1256,5926 1076,5995 822,6061C731,6084 681,6091 567,6094C489,6097 415.411,6091.64 401.411,6088.64ZM797,6002C910,5977 1126,5905 1285,5838C1443,5772 1757,5615 1805,5578C1947,5469 2020,5397 2020,5368C2020,5335 1963,5348 1800,5420C1743,5445 1600,5504 1265,5640C854,5807 539,5864 220,5828C91,5814 77,5817 91,5860C117,5932 246,6004 385,6024C460,6034 709,6021 797,6002ZM8273,6014C8370,5992 8442,5956 8485,5909C8520,5870 8531,5826 8507,5817C8501,5815 8454,5819 8405,5826C8174,5861 7938,5833 7628,5734C7504,5695 7171,5562 7151,5555C7131,5548 7010,5499 6881,5446C6752,5393 6636,5350 6623,5350C6573,5350 6584,5381 6659,5452C6759,5546 6862,5612 7090,5728C7340,5855 7543,5936 7736,5985C7914,6030 8146,6042 8273,6014ZM645,5765C792,5741 1028,5669 1167,5605C1205,5588 1220,5576 1220,5561C1220,5536 1201,5533 1023,5526C822,5518 639,5475 455,5391C414,5372 377,5361 364,5364C322,5375 146,5599 111,5687C86,5750 111,5766 255,5780C366,5791 526,5785 645,5765ZM8359,5780C8489,5766 8510,5758 8510,5724C8510,5694 8467,5612 8411,5535C8363,5469 8272,5372 8251,5365C8242,5362 8181,5383 8115,5410C7928,5489 7795,5518 7585,5526C7415,5533 7411,5534 7413,5566C7415,5590 7426,5597 7530,5636C7784,5733 7990,5779 8216,5788C8239,5789 8304,5785 8359,5780ZM2315,5419C2668,5310 3031,5185 3220,5108C3441,5018 3755,4831 3878,4716C3910,4686 3921,4645 3898,4637C3873,4629 3642,4719 3385,4839C3202,4924 2817,5061 2565,5130C2521,5142 2472,5156 2455,5162C2439,5167 2264,5218 2249,5226C2197,5253 2020,5443 2020,5472C2020,5510 2021,5510 2315,5419ZM6589,5491C6612,5476 6593,5447 6507,5363C6403,5260 6359,5221 6340,5215C6332,5213 6235,5186 6125,5156C5764,5056 5606,5002 5345,4890C4976,4730 4752,4640 4728,4640C4724,4640 4704.84,4646.58 4700.5,4656.57C4696.11,4666.66 4699.67,4680 4704.92,4683C4720.47,4696.11 4977,4903 5220,5025C5434,5133 5735,5242 6253,5401C6381,5440 6503,5478 6525,5485C6573,5502 6572,5502 6589,5491ZM1451,5466C1545,5450 1650,5421 1780,5375C1896,5333 1920,5321 1920,5301C1920,5283 1909,5282 1713,5283C1398,5283 1272,5251 980,5097C895,5052 819,5017 810,5018C789,5023 630,5132 532,5208C449,5272 424,5302 435,5320C457,5355 678,5432 828,5456C1026,5488 1287,5492 1451,5466ZM7700,5465C7929,5435 8180,5354 8180,5311C8180,5284 8100,5218 7925,5099C7779,5001 7792,5004 7720,5051C7554,5158 7376,5236 7230,5266C7143,5283 6956,5290 6790,5280C6706,5276 6706,5276 6705,5300C6705,5323 6715,5328 6800,5358C7065,5451 7210,5478 7435,5479C7523,5479 7642,5473 7700,5465ZM1826,5230C2056,5211 2259,5169 2600,5070C2970,4963 3480,4766 3480,4731C3480,4727 3472,4716 3461,4706C3428,4676 3367,4690 2975,4816C2437,4989 2356,5008 2154,5017C1999,5023 1926,5014 1800,4972C1695,4937 1528,4841 1430,4760C1385,4722 1385,4722 1335,4738C1308,4747 1200,4797 1095,4850C883,4956 872,4968 932,5013C1019,5078 1192,5154 1340,5193C1521,5240 1610,5247 1826,5230ZM7240,5211C7362,5184 7447,5151 7580,5075C7694,5011 7716,4990 7701,4962C7686,4933 7277,4730 7235,4730C7214,4730 7195,4739 7179,4756C7140,4797 6997,4888 6897,4934C6777,4990 6699,5010 6569,5017C6369,5028 6218,4998 5789,4862C5368,4729 5291,4707 5208,4702C5146,4698 5130,4700 5130,4711C5130,4739 5149,4750 5295,4815C5751,5016 6346,5183 6770,5229C6911,5244 7121,5236 7240,5211ZM2322,4945C2474,4925 2680,4872 2680,4853C2679,4831 2653,4818 2525,4780C2355,4730 2212,4662 2105,4581C2061,4547 2021,4520 2015,4520C1997,4520 1689,4606 1581,4642C1429,4691 1427,4704 1554,4788C1683,4872 1822,4932 1928,4950C2005,4963 2208,4961 2322,4945ZM6685,4945C6825,4920 7006,4835 7104,4748C7138,4718 7143,4709 7134,4694C7119,4668 6927,4603 6681,4539C6582,4514 6569,4515 6534,4551C6462,4629 6274,4725 6078,4784C5968,4817 5934,4838 5956,4860C5970,4874 6183,4927 6296,4944C6417,4963 6579,4963 6685,4945ZM3030,4749C3106,4723 3140,4703 3140,4684C3140,4676 3109,4655 3071,4636C2997,4600 2832,4484 2787,4437C2756,4403 2769,4403 2485,4440C2180,4480 2114,4499 2138,4537C2151,4557 2288,4640 2366,4674C2539,4749 2691,4781 2855,4775C2935,4773 2983,4766 3030,4749ZM5925,4765C6027,4751 6194,4699 6284,4653C6362,4613 6457,4551 6463,4536C6473,4511 6444,4488 6394,4479C6367,4475 6307,4465 6260,4456C6157,4438 5988,4420 5902,4417C5854,4416 5835,4419 5827,4431C5803,4462 5603,4608 5543,4639C5458,4681 5460,4703 5551,4736C5675,4780 5768,4788 5925,4765ZM4856,4595C5034,4631 5380,4628 5410,4622C5491,4603 5640,4528 5696,4476C5744,4431 5745,4430 5725,4414C5708,4400 5682,4399 5520,4404C5418,4408 5283,4415 5220,4420C5157,4425 5044,4434 4970,4440C4768,4456 4660,4483 4660,4519C4660,4549 4694,4562 4856,4595ZM3738,4600C3887,4574 3907,4569 3927,4545C3973,4492 3952,4472 3833,4460C3462,4419 3317,4408 3125,4403C2925,4398 2851.03,4404.61 2870,4440C2875.67,4450.58 2985,4532 3045,4562C3214,4647 3407,4657 3738,4600ZM4662,4398C4674.63,4400.58 5277,4224 5775,4179C5908,4168 5968,4148 6053,4088C6081,4068 6089,4035 6068,4028C6039,4017 5452,4076 5242,4111C4887,4169 4552.54,4375.64 4662,4398ZM3958,4388C4009,4337 3904,4251 3710,4187C3513,4121 3298,4087 2805,4044C2533,4020 2546,4020 2544,4052C2542,4076 2550,4084 2618,4121C2692,4162 2700,4164 2815,4172C3164,4196 3481,4246 3690,4312C3779,4339 3944,4402 3958,4388ZM3879,4186C3894,4169 3838,4065 3729,3905C3554,3647 3422,3522 3222,3421C3172,3396 3155,3391 3144,3401C3124,3417 3126,3431 3161,3534C3234,3749 3373,3956 3509,4054C3534,4072 3596,4101 3645,4118C3695,4135 3760,4160 3790,4174C3855,4203 3864,4205 3879,4186ZM4821,4174C4856,4160 4921,4135 4965,4119C5058,4084 5105,4055 5178,3987C5297,3874 5406,3692 5466,3507C5493,3425 5493,3419 5477,3403C5461,3387 5456,3388 5392,3419C5297,3466 5205,3530 5130,3602C4973,3752 4705,4136 4723,4183C4732,4206 4745,4204 4821,4174ZM2193,4159C2390,4157 2484,4152 2490,4145C2504,4128 2475,4093 2430,4070C2401,4055 2370,4050 2308,4049C2262,4049 2189,4045 2145,4040C2101,4035 1905,4026 1710,4020C870,3994 510,3936 277,3788C222,3753 200,3756 200,3801C200,3906 361,4024 580,4080C911,4164 1132,4182 1655,4168C1793,4165 2035,4161 2193,4159ZM7500,4166C7843,4153 8150,4073 8311,3956C8342,3933 8365,3905 8383,3866C8415,3799 8416,3784 8391,3770C8376,3762 8359,3768 8308,3799C8205,3861 7988,3932 7816,3960C7687,3981 7407,4001 7122,4010C6817,4020 6281,4046 6222,4055C6176,4061 6120,4105 6120,4134C6120,4158 6120,4158 6423,4160C6589,4161 6853,4165 7010,4169C7167,4172 7311,4174 7330,4173C7349,4172 7426,4168 7500,4166ZM3388,4028C3390,4018 3363,3976 3327,3932C3218,3798 3134,3627 3083,3436C3071,3391 3058,3362 3044,3354C2984,3314 2461,3209 2408,3225C2379,3235 2386,3268 2444,3381C2574,3638 2730,3806 2950,3922C3063,3982 3157,4017 3255,4034C3353,4052 3384,4050 3388,4028ZM5390,4030C5500,4008 5667,3931 5785,3849C5880,3783 6011,3648 6083,3539C6136,3459 6286.5,3266.5 6214,3230C6141.5,3193.5 5789,3270 5648,3320C5558,3352 5563,3348 5541,3423C5471,3663 5404,3798 5277,3953C5192,4055 5210,4067 5390,4030ZM2267,3973C2265,3948 2255,3941 2175,3907C2026,3843 1779,3700 1769,3694C1693,3650 1537,3493 1435,3360C1407,3324 1381,3291 1375,3287C1370,3283 1345,3282 1320,3285C1258.02,3293.63 1094.98,3325.64 987.404,3347.6C957.864,3353.63 869.55,3379.22 868,3380C851.903,3388.14 807,3405 814,3433C822,3468 985,3610 1105,3688C1243,3779 1352,3831 1510,3883C1698,3945 1726,3951 1985,3975C2295,4005 2269,4005 2267,3973ZM2851,3998C2893,4000 2900,3946 2845,3915C2725,3848 2588,3711 2492,3562C2443,3485 2357,3319 2340,3267C2334,3247 2320,3225 2310,3220C2280,3204 1988,3207 1965,3224C1946,3238 1946,3239 1969,3297C2001,3377 2103,3570 2157,3655C2247,3793 2329,3869 2457,3934C2520,3965 2683,3992 2851,3998ZM5999,3975C6084,3965 6116,3955 6179,3924C6271,3877 6371,3781 6448,3665C6504,3579 6615,3367 6645,3286C6663,3239 6663,3237 6645,3224C6622,3207 6340,3204 6310,3220C6300,3225 6286,3247 6280,3267C6261,3326 6163,3506 6098,3602C6017,3721 5932,3805 5814,3882C5698,3959 5679,3977 5701,3991C5717,4002 5840,3995 5999,3975ZM6705,3970C6810,3959 6930,3942 6972,3930C7210,3867 7485,3724 7655,3575C7762,3481 7810,3434 7810,3422C7810,3416 7793,3403 7773,3395C7694,3362 7284,3275 7256,3286C7248,3289 7213,3328 7178,3373C6995,3606 6811,3750 6555,3859C6393,3928 6365,3944 6362,3968C6359,3989 6362,3990 6437,3990C6480,3990 6601,3981 6705,3970ZM1428,3934C1425,3913 1411,3903 1330,3867C1128,3778 971,3671 819,3519C770,3470 723,3430 715,3430C687,3430 488,3510 400,3556C239,3641 215,3682 298,3737C362,3780 380,3788 477,3821C632,3873 894.672,3913.11 1145,3941C1225.16,3949.93 1324,3960 1362,3960C1431,3960 1431,3960 1428,3934ZM7410,3945C7839,3915 8048,3870 8261,3764C8350,3720 8367,3702 8350,3670C8339,3649 8272,3593 8220,3562C8178,3537 7917,3430 7898,3430C7890,3430 7853,3462 7815,3501C7641,3677 7484,3783 7250,3881C7197,3904 7184,3913 7182,3934C7180,3951 7184,3960 7192,3960C7199,3960 7297,3953 7410,3945ZM2210,3831C2218,3815 2212,3802 2177,3758C2099,3660 1994,3485 1923,3332C1898,3279 1873,3232 1866,3228C1855,3220 1820,3222 1605,3246C1506,3256 1472,3264 1463,3277C1456,3286 1450,3297 1450,3301C1450,3316 1628,3516 1681,3561C1774,3640 1881,3706 2030,3779C2110,3818 2180,3850 2187,3850C2194,3850 2204,3841 2210,3831ZM6530,3810C6650.67,3736.17 6941,3574 7133,3352C7175,3304 7179,3285 7150,3270C7126,3257 6767,3218 6747,3226C6739,3229 6720,3261 6704,3298C6689,3335 6578,3541 6568,3560C6539,3613 6415.51,3753.33 6409.17,3795C6403.08,3835.12 6495.33,3831.21 6530,3810Z" style="fill:rgb(201,168,106);fill-rule:nonzero;"/>
        </g>
    </g>
</svg>
